<?xml version="1.0" encoding="utf-8"?>
<!-- Generator: Adobe Illustrator 15.0.2, SVG Export Plug-In . SVG Version: 6.00 Build 0)  -->
<!DOCTYPE svg PUBLIC "-//W3C//DTD SVG 1.1//EN" "http://www.w3.org/Graphics/SVG/1.1/DTD/svg11.dtd">
<svg version="1.1" id="Layer_1" xmlns="http://www.w3.org/2000/svg" xmlns:xlink="http://www.w3.org/1999/xlink" x="0px" y="0px"
	 width="612px" height="792px" viewBox="0 0 612 792" enable-background="new 0 0 612 792" xml:space="preserve">
<title>HTML5 Logo</title>
<polygon fill="#E44D26" points="128.668,652.845 89.21,210.272 522.79,210.272 483.29,652.775 305.734,702 "/>
<polygon fill="#F16529" points="306,664.375 449.474,624.599 483.229,246.459 306,246.459 "/>
<polygon fill="#EBEBEB" points="306,410.604 234.174,410.604 229.213,355.02 306,355.02 306,300.74 305.812,300.74 169.892,300.74 
	171.191,315.302 184.532,464.882 306,464.882 "/>
<polygon fill="#EBEBEB" points="306,551.573 305.762,551.637 245.311,535.313 241.446,492.023 212.071,492.023 186.958,492.023 
	194.562,577.25 305.75,608.116 306,608.047 "/>
<polygon fill="#FFFFFF" points="305.812,410.604 305.812,464.882 372.651,464.882 366.352,535.279 305.812,551.619 305.812,608.09 
	417.089,577.25 417.905,568.08 430.66,425.179 431.984,410.604 417.357,410.604 "/>
<polygon fill="#FFFFFF" points="305.812,300.74 305.812,334.452 305.812,354.887 305.812,355.02 436.749,355.02 436.749,355.02 
	436.924,355.02 438.013,342.819 440.485,315.302 441.784,300.74 "/>
</svg>
